<svg xmlns="http://www.w3.org/2000/svg" xml:space="preserve" style="shape-rendering:geometricPrecision;text-rendering:geometricPrecision;image-rendering:optimizeQuality;fill-rule:evenodd;clip-rule:evenodd" viewBox="2590 7700 16000 9760"><defs><style>.fil1{fill:#848688}.fil0{fill:#f20d1e}</style></defs><g id="Capa_x0020_1"><g id="_1974289554864"><path d="M11923.25 16431.02c-46.73-50.4-102.67-90.14-160.89-141.29-358.7-315.2-422.08-407.45-723.81-799.04-1043.6-1354.36-1847.17-3749.53-1686.09-5519.75 10.39-114.31 65.09-425.95 57.38-501.03-304.55 659.92-322.38 1727.9-205.12 2490.38l155.08 777.97c-134.12 25.75-394.94 31.32-533.64 20.04-291.39-23.74-85.39-238.18-232.23-305.98-193.24-89.2-150.04 246.52-149.61 377.69.52 159.43-25.65 387.56 36.96 493.7 319.84 71.63 43.07-306.52 296.63-335.11 173.14-19.53 464.57 2.15 649.01 5 34.46 45.68 157.15 457.87 191.97 548.1 294.38 762.71 576.02 1272.42 1084.03 1895 244.14 299.17 881.3 894.81 1220.33 994.32M7153.11 10440.13c-96.16 42.64-71.43 133.43-71.11 241.75.3 107.13-.13 214.25.34 321.4l-.08 3856.41c.68 125.22-62.86 569.73 141.4 481.24 100.43-43.5 64.08-391.77 64.27-565.8l-.21-3213.67c.09-214.27-.19-428.46.09-642.75.15-114.62 54.63-562.54-134.7-478.58M10381.65 11617.23c320.52-137.6 536.19 99.7 686.7 258.18 404.74 426.22 766.19 1458.49 510.61 1962.16-71.65 141.18-136.52 176.03-339.8 185.95 349.43 262.63 635.43 58.01 707.53-411.7 62.3-405.96-54.08-803.64-179.75-1148.46-57.96-159.02-142.35-316.38-226.71-450.54-297.69-473.34-971.64-967.92-1158.58-395.59M7545.8 14369.19c14.02 120.19 190.1 145.87 209.03-3.01 13.77-108.32 1.03-302.38.92-419.84-.3-319.59 15.81-2417.3-.45-2535.01-18.97-137.25-191.5-132.76-209.31.56zM6542.82 14335.35c17.89 131.97 201.23 135.82 211.11-34.67l-4.15-2866.02c-26.03-112.14-191.56-134.16-207.26 25.33zM8039.54 11723.18c-54.67 147.63-27.07 1032.82-26.32 1275.97l.5 964.5c10.35 89.22 96.91 159 173 88.79 72.76-67.16 38.33-502.45 38.2-630.44l.23-1285.46c.33-227.42 66.15-485.84-185.61-413.36M5627.08 12035.05l.28 1691.41c.36 91.77-18.11 200.56 58.35 233.39 186.92 80.24 152.2-225.87 152.38-334.88l.58-1606.85c-.11-97.14 8.83-211.13-109.01-207.05-115.47 4.02-102.17 118.97-102.58 223.98M14208.94 12969.99l4191.71-104.21-4239.96-101.42zM2766.7 12873c667.09 18.73 1439.51 21.5 2098.87 72.27 94.44 7.28 232.83 9.86 290.41 68.06 87.43 88.4-4.73 195.86 186.64 184.54 107.72-47.42 63.91-536.65 46.25-569.71-27.9-52.27-102.79-78.18-159.51-27.61-165.27 147.33 178.03 168.58-701.87 208.75-274.23 12.53-1633.34 19.31-1760.79 63.7M6083.04 12356.42l.15 1014.84c.04 90.83-13.24 194.5 63.46 226.45 188.32 78.41 147.89-246.97 148.19-395.59.36-175.37 31.53-887.42-37.62-1016.62-143.72-37.77-174.21 26.08-174.18 170.92" class="fil0"/></g><g id="_1974289551552"><path d="M13125.03 16449.63c-45.61-249.79 199.6-218.29 229.61 22.34 31.15 249.61-194.23 171.33-229.61-22.34m-1870.76-1480.94c123.14-118.78 274.68 248.99 175.45 328.48-107.55 86.17-282.38-225.32-175.45-328.48m2920.64-483.02c154.81 3.54 165.63 273.28 89 310.81-97.66 47.83-176.97-204.47-89-310.81m-3259.07-5666.33c403.65-64.64 807.51 213.33 1013.85 385.25l366.83 343.48c327.1 345.12 624.72 818.16 858.95 1272.65 502.19 974.39 869.08 2230.03 913.96 3361.86 32.72 824.46-179.24 1820.84-893.74 1943.45-1161.7 199.32-2304.04-1950.04-2660.66-3003.85-255.28-754.4-463.75-1495.33-495.91-2355.27-24.69-659.77 93.13-1818.89 896.72-1947.57m-1006.97 1554.92c-177.56 17.68-275.35-264.54-166.82-380.89 172.58-6.53 239 239.94 166.82 380.89m2912.03-453.06c170.36-27.67 220.56 291.12 131.02 318.51-98.67 30.19-206.15-212.12-131.02-318.51m-2299.83-1589.96c144.11-115.79 313.98 270.35 184.02 355.83-147.15 96.82-314.64-250.84-184.02-355.83m3687.87 4638.75-48.25-205.63c-69.84-199.99-118.93-443.43-181.06-652.1-62.62-210.34-137.06-416-213.48-615.72-429.19-1121.63-1104.31-2288.51-1985.55-2971.71-859.97-666.73-1684.19-462.1-2005.89 552.48-290.3 915.56-144.35 2008.66 58.45 2930.18 225.47 1024.4 682.69 2099.19 1197.9 2949.19 147.33 243.04 338.03 526.49 512.05 740.25 116.95 143.61 259.85 311.03 387.49 424.63 331.61 295.18 844.9 729.61 1431.35 600.21 880.35-194.22 1026.29-1531.01 1015.52-2284.93-10.09-706.88-96.89-884.14-168.53-1466.85" class="fil1"/><path d="M10257.56 10902.57c110.27-2229.96 1779.23-1703.07 2871.21 1262.99 274.81 746.39 554.91 2130.67 244.48 2908.38-334.34 837.6-1102.17 410.3-1576.58-87.05l-197.92-225.1c-37.13-47.18-63.68-79.04-97.32-122.11-18.67-23.91-27.89-36.59-44.21-56.8l-53.2-56.14c-2.4-2.23-6.98-6.44-10.74-9.32 34.31 82.75 136.89 221.81 187.01 296.32 199.41 296.29 428.63 545.62 710.47 762.11 482.64 370.73 1028.29 344.41 1282.95-166.99 446.99-897.69 121.1-2391.62-178.38-3287.06-166.56-498.04-365.4-926.22-594.99-1351.84-288.03-533.99-822.31-1272.9-1398.55-1512.3-1145.65-475.94-1219.81 1389.44-1144.23 1644.91" class="fil1"/><path d="M10699.94 15981.28c-67.76-67.23-96.8-76.61-174.14-129.66-105.25-72.2-255.22-181.29-331.72-260.76-99.96-103.82-207.27-192.12-299.65-310.04-420.21-536.32-602.56-851.14-837.09-1550.41-31.58-94.14-96.89-390.39-129.28-453.32-111.84 177.8 27.56 449.73 87 634.1 334.6 1037.82 758.64 1433.11 835.2 1611.98-148.83-48.55-385.47-262.72-469.51-354.64-285.36-312.11-453.62-593.11-628.36-997.76-30.44-70.49-178.31-554.5-213.6-582.56-22.22 44.62-11.78 119.34-8.28 171.59 3.59 53.81 9.29 89.3 16.93 142.9 77.21 541.1 270.71 1103.74 605.4 1527.62 52.52 66.51 116.86 134.08 157.68 214.08-288.9-52.85-599.23-321.8-774.14-528.89-56.11-66.45-127.52-183.04-183.47-239.22 60.33 240.81 291.42 578.07 420.15 730.21 628.61 742.82 1555.05 540.56 1646.55 587.33l300.37 274.44c517.38 414.24 1208.92 859.09 2012 798.74 325.38-24.44 616.5-140.84 828.38-299.06 170.88-127.61 453.38-444.92 500.22-641.51l-71.5 90.86c-131 211.04-330.47 384.99-559.68 489.19-971.35 441.58-2114.23-314.9-2729.46-925.21M8500.31 12191.9c225.55 8.74 171.09 7.24 321.26 92.78-.28-135.92 11.02-286.77 3.54-419.45-7.32-130.34-33.21-268.86-42.84-391.34-22.4-285.21-16.39-580.02 4.37-859.49 65.05-876.32 402.87-1913.11 1111.92-2396.65 504.38-343.95 912.98-247.62 1396.63-94.25-1162.73-598.34-1966.3 25.91-2420.99 845.98-377.74 681.25-497.18 1567.43-466.59 2372.1 15.92 418.68 41.61 198.2 79.57 392.82 26.79 137.27-3.24 315.56 13.13 457.5" class="fil1"/></g></g></svg>